<svg  xmlns="http://www.w3.org/2000/svg" fill="#00407c" width="186" height="160" viewBox="0 0 33.94 30">
  <metadata><?xpacket begin="﻿" id="W5M0MpCehiHzreSzNTczkc9d"?>

                                                                                                    
                                                                                                    
                                                                                                    
                                                                                                    
                                                                                                    
                                                                                                    
                                                                                                    
                                                                                                    
                                                                                                    
                                                                                                    
                                                                                                    
                                                                                                    
                                                                                                    
                                                                                                    
                                                                                                    
                                                                                                    
                                                                                                    
                                                                                                    
                           
<?xpacket end="w"?></metadata>
<defs>
    <style>
        width:100px;
        height:100px;
      .cls-1 {
        fill: #00407c;
        fill-rule: #00407c;
      }
    </style>
  </defs>
  <path id="Top_5_Casinos" data-name="Top 5 Casinos" class="cls-1" d="M1864.2,2207.89l1.74,6.99-2.05,4.12,1.49,3h-1.37v2H1866v4h-1.99v2h29.98v-2H1892v-4h1.99v-2h-1.37l1.49-3-2.05-4.12,1.74-6.99a3,3,0,1,0-3.79-2.89,3.086,3.086,0,0,0,.29,1.29l-5.08,5.06-3.64-6.85a2.932,2.932,0,0,0,.41-1.5,2.99,2.99,0,1,0-5.98,0,2.932,2.932,0,0,0,.41,1.5l-3.64,6.85-5.08-5.06a3.086,3.086,0,0,0,.29-1.29A2.985,2.985,0,1,0,1864.2,2207.89Zm3.67,11.11-0.88,1.76-0.88-1.76,0.88-1.76Zm0.12,9v-4h22.02v4h-22.02Zm23.9-9-0.88,1.76-0.88-1.76,0.88-1.76Zm1.11-15a1,1,0,1,1-1,1A0.994,0.994,0,0,1,1893,2204Zm-14-2a1,1,0,1,1-1,1A0.994,0.994,0,0,1,1879,2202Zm-5.72,12.65,4.69-8.83a3.037,3.037,0,0,0,2.06,0l4.69,8.83,6.99-6.95a0.2,0.2,0,0,0,.08.04l-1.72,6.91-2.16,4.35,1.49,3h-8.79l1.49-3-3.1-6.24-3.1,6.24,1.49,3h-8.79l1.49-3-2.16-4.35-1.72-6.91a0.2,0.2,0,0,0,.08-0.04Zm4.84,4.35,0.88-1.76,0.88,1.76-0.88,1.76ZM1865,2204a1,1,0,1,1-.99,1A1,1,0,0,1,1865,2204Z" transform="translate(-1862.03 -2200)"/>
</svg>
